<svg width="87" height="34" viewBox="0 0 87 34" fill="none" xmlns="http://www.w3.org/2000/svg">
<path d="M39 27.9286H38C36.3725 27.9286 35.1375 27.3271 34.4944 26.65C33.9381 26.0636 33.2656 25.6429 32.5088 25.6429H31.49C30.7331 25.6429 30.0606 26.0636 29.5044 26.65C28.8625 27.3271 27.6275 27.9286 26 27.9286C24.3725 27.9286 23.1375 27.3271 22.4944 26.65C21.9381 26.0636 21.2656 25.6429 20.5088 25.6429H19.49C18.7331 25.6429 18.0606 26.0636 17.5044 26.65C16.8625 27.3271 15.6275 27.9286 14 27.9286C12.3725 27.9286 11.1375 27.3271 10.4944 26.65C9.93813 26.0636 9.26562 25.6429 8.50875 25.6429H7.49C6.73312 25.6429 6.06063 26.0636 5.50437 26.65C4.8625 27.3271 3.6275 27.9286 2 27.9286H1C0.4475 27.9286 0 28.44 0 29.0714V31.3571C0 31.9886 0.4475 32.5 1 32.5H2C4.41375 32.5 6.545 31.6293 8 30.2257C9.455 31.63 11.5863 32.5 14 32.5C16.4137 32.5 18.545 31.6293 20 30.2257C21.455 31.63 23.5863 32.5 26 32.5C28.4137 32.5 30.545 31.6293 32 30.2257C33.455 31.63 35.5863 32.5 38 32.5H39C39.5525 32.5 40 31.9886 40 31.3571V29.0714C40 28.44 39.5525 27.9286 39 27.9286ZM14 25.6429V18.7857H26V25.6429C27.195 25.6429 27.9288 25.2029 28.1494 24.97C28.7225 24.3657 29.3494 23.9457 30 23.6793V7.35714C30 6.09714 30.8975 5.07143 32 5.07143C33.1025 5.07143 34 6.09714 34 7.35714V8.5C34 9.13143 34.4475 9.64286 35 9.64286H37C37.5525 9.64286 38 9.13143 38 8.5V7.35714C38 3.57571 35.3088 0.5 32 0.5C28.6912 0.5 26 3.57571 26 7.35714V14.2143H14V7.35714C14 6.09714 14.8975 5.07143 16 5.07143C17.1025 5.07143 18 6.09714 18 7.35714V8.5C18 9.13143 18.4475 9.64286 19 9.64286H21C21.5525 9.64286 22 9.13143 22 8.5V7.35714C22 3.57571 19.3088 0.5 16 0.5C12.6912 0.5 10 3.57571 10 7.35714V23.6786C10.6506 23.945 11.2775 24.3657 11.8506 24.9693C12.0712 25.2029 12.805 25.6429 14 25.6429Z" fill="black"/>
<path d="M53.4018 13.736L50.9058 15.53L47.6298 10.694L44.3538 15.53L41.8578 13.736L45.4978 8.432H42.6638V5.442H46.0958V3.674H49.1638V5.442H52.5698V8.432H49.7618L53.4018 13.736ZM58.9138 26.84C58.9138 27.4813 58.6885 28.0273 58.2378 28.478C57.7872 28.9287 57.2412 29.154 56.5998 29.154H50.0218C49.7098 29.154 49.4152 29.0933 49.1378 28.972C48.8605 28.8507 48.6178 28.686 48.4098 28.478C48.2018 28.27 48.0372 28.0187 47.9158 27.724C47.7945 27.4467 47.7338 27.152 47.7338 26.84V19.196H55.8198V4.194H58.9138V8.38H62.1898V11.344H58.9138V19.196V26.84ZM55.8198 26.19V22.16H50.8018V26.19H55.8198ZM85.6 11.37H82.324V24.526C82.324 25.2367 82.1767 25.904 81.882 26.528C81.6047 27.152 81.2233 27.698 80.738 28.166C80.2527 28.634 79.6893 28.998 79.048 29.258C78.4067 29.5353 77.7307 29.674 77.02 29.674C76.292 29.674 75.6073 29.5353 74.966 29.258C74.3247 28.998 73.7613 28.634 73.276 28.166C72.808 27.698 72.4267 27.152 72.132 26.528C71.8547 25.904 71.716 25.2367 71.716 24.526C71.716 23.8153 71.8547 23.148 72.132 22.524C72.4267 21.9 72.8167 21.3627 73.302 20.912C73.7873 20.444 74.3507 20.08 74.992 19.82C75.6333 19.5427 76.3093 19.404 77.02 19.404C77.8347 19.404 78.5713 19.56 79.23 19.872V4.194H82.324V8.38H85.6V11.37ZM79.23 24.526C79.23 23.8673 79.0133 23.3387 78.58 22.94C78.1467 22.524 77.6267 22.316 77.02 22.316C76.4133 22.316 75.8847 22.524 75.434 22.94C75.0007 23.3387 74.784 23.8673 74.784 24.526C74.784 25.1847 75.0007 25.722 75.434 26.138C75.8847 26.554 76.4133 26.762 77.02 26.762C77.6267 26.762 78.1467 26.554 78.58 26.138C79.0133 25.722 79.23 25.1847 79.23 24.526ZM76.006 12.878C76.006 13.19 75.9453 13.4847 75.824 13.762C75.7027 14.0393 75.538 14.2907 75.33 14.516C75.122 14.724 74.8707 14.8887 74.576 15.01C74.2987 15.1313 74.004 15.192 73.692 15.192H68.388C68.076 15.192 67.7813 15.1313 67.504 15.01C67.2267 14.8887 66.984 14.724 66.776 14.516C66.568 14.2907 66.4033 14.0393 66.282 13.762C66.1607 13.4847 66.1 13.19 66.1 12.878V4.584H69.194V7.106H72.912V4.584H76.006V12.878ZM72.912 12.202V10.096H69.194V12.202H72.912Z" fill="black"/>
</svg>